<mxfile host="app.diagrams.net" modified="2024-01-22T18:53:41.969Z" agent="Mozilla/5.0 (Windows NT 10.0; Win64; x64) AppleWebKit/537.36 (KHTML, like Gecko) Chrome/120.0.0.0 Safari/537.36 Edg/120.0.0.0" version="22.1.21" etag="ySD9b_LhdP-VngA7tyOs" type="github">
  <diagram name="Page-1" id="zkn0w7a-iAP-6aSY91YI">
    <mxGraphModel>
      <root>
        <mxCell id="0" />
        <mxCell id="1" parent="0" />
      </root>
    </mxGraphModel>
  </diagram>
</mxfile>
